<?xml version="1.0" encoding="utf-8"?>
<!-- Generator: Adobe Illustrator 16.0.0, SVG Export Plug-In . SVG Version: 6.00 Build 0)  -->
<!DOCTYPE svg PUBLIC "-//W3C//DTD SVG 1.1//EN" "http://www.w3.org/Graphics/SVG/1.1/DTD/svg11.dtd">
<svg version="1.1" id="Layer_1" xmlns="http://www.w3.org/2000/svg" xmlns:xlink="http://www.w3.org/1999/xlink" x="0px" y="0px"
	 width="244.75px" height="206.125px" viewBox="0 0 244.75 206.125" enable-background="new 0 0 244.75 206.125"
	 xml:space="preserve">
<g>
	<g id="LWPOLYLINE_3_">
		<g>
			<path d="M214.041,94.166c-0.036,0-0.071-0.004-0.107-0.012c-23.596-5.168-35.818-10.381-54.487-23.238
				c-0.213-0.146-0.279-0.432-0.151-0.658c0.276-0.489,0.557-0.97,0.836-1.45c0.453-0.777,0.905-1.552,1.334-2.353
				c0.067-0.125,0.185-0.216,0.323-0.25c0.039-0.01,0.078-0.014,0.117-0.014c0.101,0,0.2,0.03,0.285,0.089
				c18.506,12.813,29.595,17.682,51.585,22.649c0.188,0.042,0.334,0.189,0.377,0.376c0.03,0.132,0.295,1.313,0.289,2.109
				c-0.005,0.686,0.038,1.261,0.068,1.681c0.019,0.256,0.032,0.453,0.03,0.577c-0.002,0.15-0.072,0.291-0.189,0.384
				C214.262,94.128,214.153,94.166,214.041,94.166z"/>
			<path d="M161.906,66.692c18.597,12.876,29.697,17.742,51.76,22.726c0.084,0.367,0.281,1.347,0.276,1.994
				c-0.008,1.104,0.104,1.937,0.099,2.254c-22.884-5.013-35.018-9.875-54.311-23.161C160.455,69.223,161.21,67.991,161.906,66.692
				 M161.906,65.692c-0.078,0-0.157,0.009-0.234,0.028c-0.277,0.067-0.512,0.249-0.647,0.5c-0.423,0.79-0.882,1.577-1.325,2.337
				c-0.281,0.482-0.562,0.966-0.84,1.456c-0.255,0.451-0.123,1.022,0.303,1.316c18.732,12.9,30.993,18.129,54.664,23.314
				c0.071,0.015,0.143,0.023,0.214,0.023c0.223,0,0.442-0.075,0.621-0.216c0.235-0.186,0.374-0.468,0.379-0.768
				c0.002-0.134-0.011-0.345-0.032-0.621c-0.03-0.412-0.072-0.976-0.067-1.642c0.006-0.834-0.25-1.999-0.302-2.224
				c-0.085-0.375-0.379-0.667-0.754-0.752c-21.917-4.95-32.967-9.802-51.411-22.572C162.307,65.753,162.108,65.692,161.906,65.692
				L161.906,65.692z"/>
		</g>
	</g>
	<g>
		<path d="M15.866,175.213c-3.624,0-7.045-1.756-9.153-4.697c-1.75-2.442-2.443-5.42-1.952-8.383
			c0.49-2.963,2.105-5.558,4.548-7.307c2.422-1.734,3.998-4.429,4.322-7.393c1.938-17.737,0.568-35.465-4.071-52.692
			c-0.69-2.56-2.307-4.748-4.553-6.16c-4.315-2.709-5.771-8.328-3.312-12.791c1.694-3.072,4.927-4.979,8.438-4.979
			c1.612,0,3.215,0.414,4.636,1.196c1.546,0.852,3.297,1.302,5.062,1.302c1.133,0,2.251-0.183,3.325-0.542
			c28.009-9.353,54.908-22.034,79.949-37.694c2.562-1.601,4.309-4.23,4.793-7.213c0.005-0.03,0.013-0.06,0.022-0.088
			c0.875-4.926,5.045-8.429,9.979-8.429c0.55,0,1.107,0.046,1.654,0.136c2.673,0.438,5.015,1.892,6.596,4.092
			c1.581,2.201,2.209,4.886,1.77,7.559c-0.53,3.229,0.502,6.57,2.762,8.938c7.053,7.398,11.135,11.552,19.758,17.851
			c0.201,0.147,0.264,0.42,0.146,0.64c-0.379,0.709-0.829,1.372-1.263,2.012c-0.377,0.557-0.768,1.132-1.099,1.723
			c-0.07,0.124-0.189,0.213-0.329,0.243c-0.035,0.008-0.071,0.012-0.107,0.012c-0.104,0-0.208-0.033-0.293-0.095
			c-9.018-6.539-13.486-10.97-21.535-19.521c-1.824-2.104-4.447-3.316-7.208-3.341c-0.248,0.024-0.544,0.037-0.841,0.037
			c-0.71,0-1.421-0.075-2.113-0.223c-0.844-0.168-1.715-0.253-2.581-0.253c-2.073,0-4.145,0.496-5.99,1.435
			C81.461,56.759,53.722,69.841,24.819,79.449c-2.343,0.669-4.268,2.197-5.441,4.308s-1.454,4.553-0.791,6.876
			c0,0,0.029,0.096,0.029,0.097c5.392,19.26,6.944,39.096,4.616,58.959c-0.282,1.701-0.137,3.437,0.415,5.043
			c0.346,1.012,1.11,1.832,2.096,2.251c1.301,0.551,2.677,0.83,4.091,0.83c0.933,0,1.862-0.124,2.762-0.37
			c15.684-4.275,24.396-7.259,37.762-14.668c0.075-0.042,0.159-0.062,0.242-0.062c0.101,0,0.202,0.03,0.287,0.091l4.099,2.877
			c0.14,0.099,0.22,0.262,0.212,0.433c-0.008,0.171-0.104,0.326-0.252,0.411c-14.765,8.404-24.908,11.861-42.061,16.432
			c-3.021,0.804-5.508,2.894-6.823,5.732c-0.817,1.763-2.082,3.292-3.658,4.422C20.482,174.485,18.221,175.213,15.866,175.213z"/>
		<g>
			<path d="M117.899,19.845c0.519,0,1.044,0.042,1.573,0.129c5.254,0.862,8.816,5.821,7.953,11.077
				c-0.559,3.401,0.513,6.869,2.894,9.364c7.246,7.601,11.345,11.715,19.825,17.909c-0.696,1.302-1.634,2.438-2.357,3.726
				c-9.189-6.664-13.685-11.193-21.464-19.459c-1.905-2.197-4.661-3.472-7.568-3.498c-0.281,0.025-0.563,0.037-0.845,0.037
				c-0.674,0-1.348-0.071-2.008-0.212c-0.89-0.177-1.789-0.265-2.686-0.265c-2.148,0-4.28,0.504-6.217,1.489
				C81.204,56.33,53.561,69.368,24.661,78.975c-5.067,1.446-8.002,6.729-6.555,11.796c0.01,0.032,0.019,0.063,0.028,0.095
				c5.348,19.104,6.91,39.065,4.601,58.766c-0.293,1.765-0.143,3.573,0.438,5.264c0.393,1.148,1.255,2.074,2.373,2.549
				c1.365,0.578,2.823,0.87,4.287,0.87c0.971,0,1.945-0.129,2.894-0.388c15.127-4.124,24.158-7.11,37.872-14.713l4.099,2.877
				c-14.932,8.5-25.341,11.96-41.942,16.383c-3.156,0.84-5.775,3.042-7.147,6.006c-0.781,1.686-1.985,3.143-3.496,4.226
				c-1.895,1.356-4.081,2.009-6.247,2.009c-3.348,0-6.648-1.56-8.747-4.488c-3.456-4.826-2.345-11.537,2.48-14.992
				c2.541-1.819,4.188-4.636,4.528-7.744c1.937-17.726,0.552-35.658-4.085-52.877c-0.721-2.675-2.424-4.979-4.77-6.453
				C1.178,85.587-0.2,80.268,2.133,76.032c1.664-3.017,4.782-4.721,8-4.721c1.489,0,2.999,0.365,4.395,1.134
				c1.641,0.904,3.468,1.364,5.304,1.364c1.172,0,2.349-0.188,3.483-0.567c28.083-9.377,54.954-22.047,80.056-37.744
				c2.685-1.678,4.515-4.434,5.021-7.557c0.003-0.004,0.003-0.01,0.003-0.015C109.17,23.2,113.26,19.845,117.899,19.845
				 M117.899,18.845c-5.225,0-9.633,3.743-10.489,8.902c-0.002,0.011-0.004,0.023-0.006,0.034c-0.461,2.84-2.125,5.344-4.564,6.869
				C77.832,50.289,50.969,62.954,22.998,72.293c-1.023,0.342-2.088,0.516-3.167,0.516c-1.682,0-3.349-0.429-4.821-1.24
				c-1.495-0.823-3.181-1.258-4.877-1.258c-3.692,0-7.093,2.007-8.875,5.238c-2.586,4.695-1.056,10.605,3.484,13.456
				c2.139,1.344,3.679,3.428,4.336,5.866c4.623,17.167,5.987,34.833,4.056,52.508c-0.31,2.822-1.81,5.388-4.116,7.039
				c-2.551,1.827-4.238,4.537-4.75,7.632c-0.512,3.096,0.212,6.205,2.039,8.756c2.202,3.072,5.775,4.906,9.56,4.906
				c2.46,0,4.822-0.76,6.829-2.195c1.647-1.181,2.968-2.777,3.821-4.618c1.252-2.705,3.62-4.694,6.498-5.46
				c17.196-4.582,27.367-8.049,42.18-16.48c0.298-0.17,0.488-0.479,0.504-0.822c0.016-0.342-0.144-0.669-0.424-0.865l-4.099-2.877
				c-0.172-0.121-0.373-0.182-0.575-0.182c-0.167,0-0.333,0.041-0.485,0.125c-13.319,7.384-22.008,10.358-37.65,14.623
				c-0.857,0.234-1.742,0.353-2.631,0.353c-1.347,0-2.658-0.266-3.896-0.791c-0.854-0.362-1.517-1.074-1.817-1.951
				c-0.526-1.529-0.663-3.181-0.398-4.776c2.343-19.976,0.785-39.877-4.624-59.199l-0.02-0.067
				c-0.636-2.227-0.371-4.533,0.737-6.528s2.927-3.438,5.121-4.064c28.968-9.628,56.729-22.719,82.556-38.922
				c1.766-0.891,3.744-1.361,5.724-1.361c0.834,0,1.672,0.083,2.49,0.246c0.713,0.152,1.458,0.231,2.204,0.231
				c0.293,0,0.59-0.012,0.882-0.037c2.602,0.037,5.069,1.184,6.776,3.153c8.098,8.605,12.58,13.049,21.632,19.613
				c0.172,0.125,0.378,0.19,0.587,0.19c0.071,0,0.143-0.008,0.214-0.023c0.279-0.061,0.518-0.238,0.658-0.487
				c0.321-0.572,0.688-1.114,1.077-1.687c0.441-0.651,0.898-1.325,1.29-2.057c0.235-0.439,0.11-0.985-0.292-1.279
				c-8.589-6.273-12.659-10.415-19.691-17.792c-2.152-2.255-3.135-5.438-2.63-8.512c0.461-2.805-0.199-5.622-1.857-7.932
				c-1.658-2.309-4.116-3.834-6.921-4.294C119.061,18.893,118.477,18.845,117.899,18.845L117.899,18.845z"/>
		</g>
	</g>
	<g>
		<path d="M191.121,205.129c-6.732,0-12.634-4.552-14.352-11.068c-0.912-3.452-3.481-6.178-6.872-7.292
			c-58.32-19.163-101.453-45.067-144.225-86.617c-0.051-0.05-0.091-0.109-0.117-0.175c-0.018-0.046-1.811-4.611-2.735-8.737
			c-0.049-0.217,0.052-0.44,0.247-0.547c0.076-0.042,0.159-0.062,0.241-0.062c0.129,0,0.257,0.05,0.354,0.146l0.917,0.916
			c40.276,41.899,85.392,69.566,146.291,89.713c1.066,0.353,2.175,0.532,3.296,0.532c2.598,0,5.092-0.958,7.023-2.697
			c1.176-1.058,2.502-1.916,3.941-2.551c2.768-1.307,4.827-3.761,5.636-6.729c6.066-22.277,15.246-43.562,27.282-63.264
			c1.486-2.431,1.919-5.405,1.188-8.16c-0.382-1.44-0.506-2.919-0.369-4.398c0.257-2.859-0.688-5.735-2.592-7.889
			c-15.03-16.986-28.216-35.665-39.194-55.516c-0.484-0.923-1.424-1.49-2.457-1.49c-0.445,0-0.89,0.11-1.287,0.319
			c-0.55,0.29-0.993,0.764-1.246,1.334c-15.304,47.339-43.367,83.589-83.39,107.693c-0.079,0.048-0.168,0.071-0.258,0.071
			c-0.098,0-0.195-0.028-0.28-0.086l-4.146-2.8c-0.142-0.096-0.225-0.258-0.22-0.43s0.098-0.328,0.246-0.415
			c38.668-22.729,66.157-57.069,81.702-102.067c1.199-3.471,0.475-7.373-1.89-10.183c-3.14-3.726-3.968-8.853-2.162-13.38
			c2.012-5.045,6.822-8.306,12.255-8.306c1.674,0,3.317,0.317,4.885,0.942c3.272,1.305,5.841,3.806,7.233,7.042
			c1.391,3.237,1.438,6.822,0.133,10.093c-1.184,2.969-0.962,6.268,0.609,9.048c10.289,18.205,22.508,35.393,36.318,51.088
			c1.985,2.209,4.832,3.479,7.805,3.479l0.507-0.005c6.202,0,11.565,4.628,12.476,10.767c1.02,6.882-3.75,13.311-10.632,14.33
			c-3.105,0.462-5.817,2.267-7.44,4.952c-11.054,18.283-19.563,37.992-25.291,58.578c-0.918,3.305-0.162,6.855,2.022,9.499
			c1.364,1.645,2.373,3.607,2.917,5.678c1.012,3.836,0.47,7.836-1.527,11.264c-1.997,3.427-5.21,5.872-9.047,6.883
			C193.673,204.962,192.396,205.129,191.121,205.129z"/>
		<path d="M173.948,1.496c1.565,0,3.158,0.292,4.7,0.907c6.51,2.596,9.684,9.978,7.087,16.486c-1.234,3.095-1,6.58,0.639,9.479
			c10.324,18.268,22.516,35.418,36.378,51.172c2.088,2.325,5.064,3.649,8.181,3.649c0.079,0,0.159,0,0.238-0.002
			c0.09-0.002,0.179-0.003,0.269-0.003c5.989,0,11.099,4.39,11.981,10.34c0.98,6.619-3.588,12.781-10.211,13.763
			c-3.242,0.481-6.1,2.383-7.795,5.188c-11.079,18.324-19.605,38.074-25.345,58.703c-0.962,3.463-0.172,7.179,2.119,9.951
			c1.329,1.603,2.29,3.475,2.819,5.486c2.022,7.665-2.551,15.516-10.218,17.536c-1.227,0.323-2.458,0.479-3.669,0.479
			c-6.359,0-12.171-4.259-13.869-10.696c-0.951-3.601-3.66-6.477-7.199-7.639c-57.214-18.8-100.802-44.506-144.032-86.501
			c0,0-1.786-4.527-2.713-8.663l0.917,0.916c42.3,44.005,88.535,70.662,146.487,89.834c1.131,0.375,2.296,0.558,3.453,0.558
			c2.678,0,5.309-0.98,7.357-2.826c1.132-1.018,2.417-1.851,3.809-2.465c2.909-1.373,5.07-3.951,5.917-7.054
			c6.052-22.224,15.218-43.479,27.227-63.135c1.564-2.56,2.014-5.649,1.244-8.549c-0.365-1.375-0.486-2.806-0.354-4.224
			c0.271-3.011-0.713-6.002-2.716-8.267c-15.031-16.988-28.154-35.577-39.131-55.427c-0.584-1.113-1.719-1.748-2.895-1.748
			c-0.513,0-1.034,0.121-1.52,0.376c-0.652,0.344-1.17,0.897-1.471,1.574c-14.848,45.918-41.846,82.567-83.19,107.468l-4.146-2.8
			c40.169-23.61,66.708-58.298,81.921-102.335c1.263-3.655,0.511-7.708-1.98-10.668c-3.016-3.579-3.814-8.525-2.08-12.873
			C164.138,4.519,168.906,1.495,173.948,1.496 M173.948,0.496l0,1L173.948,0.496c-5.639,0-10.632,3.383-12.72,8.62
			c-1.875,4.699-1.015,10.021,2.244,13.888c2.252,2.676,2.942,6.392,1.8,9.697c-7.652,22.15-18.23,41.844-31.441,58.534
			c-13.606,17.189-30.442,31.746-50.042,43.266c-0.296,0.174-0.482,0.488-0.493,0.831s0.155,0.668,0.44,0.86l4.146,2.8
			c0.168,0.113,0.364,0.171,0.56,0.171c0.178,0,0.357-0.048,0.516-0.144c40.114-24.159,68.243-60.481,83.608-107.962
			c0.211-0.449,0.566-0.821,1.003-1.052c0.329-0.172,0.684-0.261,1.053-0.261c0.847,0,1.617,0.465,2.009,1.213
			c11.005,19.902,24.213,38.611,39.267,55.625c1.814,2.051,2.714,4.79,2.469,7.515c-0.143,1.534-0.014,3.073,0.384,4.57
			c0.696,2.623,0.284,5.456-1.131,7.771c-12.062,19.741-21.259,41.069-27.338,63.394c-0.771,2.825-2.731,5.163-5.379,6.412
			c-1.465,0.646-2.835,1.533-4.05,2.625c-1.839,1.658-4.214,2.57-6.689,2.57c-1.067,0-2.124-0.171-3.139-0.507
			c-60.818-20.12-105.871-47.747-146.081-89.578l-0.932-0.931c-0.192-0.192-0.448-0.292-0.707-0.292
			c-0.165,0-0.33,0.041-0.482,0.124c-0.39,0.214-0.591,0.661-0.493,1.095c0.933,4.164,2.684,8.624,2.758,8.812
			c0.052,0.132,0.132,0.251,0.233,0.35c42.83,41.606,86.02,67.545,144.417,86.734c3.229,1.061,5.676,3.656,6.544,6.944
			c1.776,6.735,7.876,11.44,14.835,11.44c1.318,0,2.638-0.173,3.924-0.512c3.966-1.045,7.288-3.572,9.352-7.115
			c2.064-3.542,2.625-7.677,1.578-11.643c-0.562-2.139-1.606-4.169-3.017-5.87c-2.079-2.516-2.799-5.897-1.925-9.045
			c5.715-20.542,14.206-40.209,25.237-58.453c1.546-2.558,4.128-4.276,7.086-4.716c7.154-1.061,12.113-7.744,11.053-14.898
			c-0.946-6.381-6.522-11.193-12.97-11.193c-0.1,0-0.195,0.001-0.291,0.003l-0.216,0.002c-2.832,0-5.543-1.209-7.437-3.317
			c-13.781-15.661-25.979-32.821-36.251-50.996c-1.497-2.648-1.708-5.789-0.581-8.617c1.355-3.396,1.306-7.117-0.139-10.476
			c-1.444-3.359-4.11-5.956-7.506-7.31C177.391,0.825,175.686,0.496,173.948,0.496L173.948,0.496z"/>
	</g>
</g>
</svg>
