<?xml version="1.0" encoding="iso-8859-1"?>
<!-- Generator: Adobe Illustrator 16.0.0, SVG Export Plug-In . SVG Version: 6.00 Build 0)  -->
<!DOCTYPE svg PUBLIC "-//W3C//DTD SVG 1.1//EN" "http://www.w3.org/Graphics/SVG/1.1/DTD/svg11.dtd">
<svg version="1.1" id="Layer_1" xmlns="http://www.w3.org/2000/svg" xmlns:xlink="http://www.w3.org/1999/xlink" x="0px" y="0px"
	 width="200px" height="200px" viewBox="0 0 180 180" style="enable-background:new 0 0 200 200;"
	 xml:space="preserve">
<g>
<!-- 	<polygon style="fill-rule:evenodd;clip-rule:evenodd;fill:#00442E;fill:#FFFFFF;" points="0,0 192.756,0 192.756,192.756 0,192.756 0,0 	"/> -->
	<polygon style="fill-rule:evenodd;clip-rule:evenodd;fill:#0094D2;" points="144.578,67.615 144.578,75.119 129.828,65.739 114.869,75.119
		100.117,65.739 85.367,75.119 85.367,67.615 100.117,58.444 114.869,67.615 129.828,58.444 144.578,67.615 	"/>
	<polygon style="fill-rule:evenodd;clip-rule:evenodd;fill:#00AC48;" points="115.076,51.566 115.076,58.861 100.117,49.69 85.367,58.861 
		70.616,49.69 55.657,58.861 55.865,51.566 70.616,42.395 85.367,51.566 100.117,42.395 115.076,51.566 	"/>
	<polygon style="fill-rule:evenodd;clip-rule:evenodd;fill:#00442E;" points="56.28,131.811 61.059,142.648 62.721,142.648 67.5,131.811 
		65.837,131.811 61.89,141.189 57.942,131.811 56.28,131.811 	"/>
	<polygon style="fill-rule:evenodd;clip-rule:evenodd;fill:#00442E;" points="70.408,131.811 70.408,142.648 71.862,142.648 71.862,131.811 
		70.408,131.811 	"/>
	<!-- c -->
	<polygon style="fill-rule:evenodd;clip-rule:evenodd;fill:#00442E;fill:#00442E;" points="81.211,142.857 82.25,142.857 83.289,142.648 84.12,142.232 
		84.951,141.607 85.575,140.982 85.99,140.148 86.406,139.314 86.613,138.48 84.951,138.48 84.951,139.105 84.536,139.73 
		84.328,140.148 83.705,140.564 83.289,140.982 82.666,141.189 81.835,141.398 81.211,141.398 80.173,141.398 79.341,141.189 
		78.511,140.773 77.887,140.355 77.472,139.73 77.057,139.105 76.848,138.271 76.848,137.23 76.848,136.188 77.057,135.354 
		77.472,134.729 77.887,134.104 78.511,133.688 79.341,133.27 80.173,133.061 81.211,133.061 81.835,133.061 82.458,133.27 
		83.081,133.479 83.705,133.688 84.12,134.104 84.328,134.52 84.744,135.146 84.951,135.771 86.406,135.771 86.198,134.938 
		85.99,134.104 85.367,133.27 84.744,132.645 84.12,132.229 83.081,131.811 82.25,131.604 81.211,131.604 79.757,131.811 
		78.718,132.02 77.68,132.436 76.848,133.061 76.018,133.895 75.602,134.938 75.394,135.979 75.187,137.23 75.394,138.48 
		75.602,139.523 76.018,140.564 76.848,141.398 77.68,142.023 78.718,142.441 79.757,142.857 81.211,142.857 	"/>
	<!-- t -->
	<polygon style="fill-rule:evenodd;clip-rule:evenodd;fill:#00442E;" points="94.092,142.648 94.092,133.27 98.248,133.27 98.248,131.811 
		88.483,131.811 88.483,133.27 92.638,133.27 92.638,142.648 94.092,142.648 	"/>
	<!-- i -->
	<polygon style="fill-rule:evenodd;clip-rule:evenodd;fill:#00442E;" points="128.582,131.811 128.582,142.648 130.242,142.648 130.242,131.811 
		128.582,131.811 	"/>
	<!-- R -->
	<polygon style="fill-rule:evenodd;clip-rule:evenodd;fill:#00442E;" points="84.328,88.041 84.328,124.516 90.976,124.516 90.976,106.59 
		90.976,105.34 91.184,103.881 91.392,102.631 91.807,101.381 92.431,100.338 92.846,99.088 93.677,98.254 94.508,97.213 
		95.339,96.378 96.17,95.753 97.002,95.127 98.041,94.71 99.078,94.294 100.117,94.085 101.365,93.876 102.402,93.668 
		103.025,93.668 103.441,93.876 104.064,93.876 104.689,93.876 105.312,94.085 105.936,94.085 106.559,94.294 107.182,94.502 
		107.182,87.416 106.766,87.416 106.559,87.207 106.143,87.207 105.727,86.999 105.52,86.999 105.104,86.999 103.234,86.999 
		102.195,86.999 101.365,87.207 100.533,87.416 99.494,87.624 98.664,88.041 97.625,88.25 96.793,88.875 95.962,89.292 
		95.131,89.708 94.508,90.333 93.677,91.167 92.846,91.792 92.223,92.626 91.599,93.46 90.976,94.294 90.976,88.041 84.328,88.041 	
		"/>
	<!-- K -->
	<polygon style="fill-rule:evenodd;clip-rule:evenodd;fill:#00442E;" points="110.09,86.999 110.09,124.516 116.738,124.516 116.738,111.385 
		123.387,105.965 138.553,124.516 146.863,124.516 128.373,102.006 145.617,88.041 135.852,88.041 116.738,104.09 116.738,86.999 
		110.09,86.999 	"/>
	<!-- S -->
	<polygon style="fill-rule:evenodd;clip-rule:evenodd;fill:#00442E;" points="151.436,112.635 144.162,112.635 144.371,114.303 144.787,115.762 
		145.201,117.221 145.824,118.471 146.449,119.723 147.279,120.973 148.111,121.807 149.357,122.641 150.396,123.475 151.643,124.1 
		153.096,124.725 154.551,125.141 156.42,125.559 158.082,125.766 160.16,125.975 162.029,125.975 164.316,125.975 166.393,125.766 
		168.264,125.559 169.926,125.141 171.588,124.725 173.041,124.1 174.496,123.475 175.742,122.848 176.781,122.014 177.82,121.182 
		178.65,120.139 179.273,119.098 179.689,118.055 180.105,116.805 180.312,115.346 180.312,114.094 180.312,112.844 
		180.105,111.803 179.896,110.76 179.689,109.926 179.273,109.092 178.859,108.258 178.236,107.633 177.611,107.008 
		176.781,106.383 175.951,105.965 174.912,105.549 173.873,105.133 172.834,104.715 171.379,104.299 170.133,104.09 
		168.678,103.881 160.783,102.422 158.914,102.215 157.252,101.797 155.797,101.381 154.551,100.963 153.721,100.338 
		153.096,99.504 152.682,98.67 152.473,97.42 152.682,96.378 153.096,95.336 153.928,94.502 154.967,93.876 156.213,93.251 
		157.875,92.835 159.744,92.626 162.029,92.417 163.277,92.417 164.316,92.626 165.354,92.626 166.393,92.835 167.225,93.251 
		168.055,93.46 168.887,93.668 169.51,94.085 170.133,94.502 170.756,94.919 171.172,95.544 171.588,96.17 172.002,96.795 
		172.211,97.42 172.418,98.254 172.627,99.088 178.859,99.088 178.859,98.879 178.859,97.42 178.65,96.17 178.443,94.919 
		177.82,93.876 177.197,92.626 176.574,91.792 175.742,90.75 174.703,89.917 173.664,89.292 172.418,88.666 170.965,88.041 
		169.51,87.624 167.848,87.416 166.186,87.207 164.316,86.999 162.238,86.999 160.369,86.999 158.498,87.207 156.836,87.416 
		155.174,87.624 153.721,88.041 152.473,88.666 151.227,89.292 150.188,89.917 149.148,90.75 148.318,91.584 147.486,92.626 
		146.863,93.668 146.449,94.71 146.24,95.961 146.033,97.213 145.824,98.67 146.033,99.713 146.033,100.754 146.449,101.797 
		146.656,102.84 147.279,103.465 147.695,104.299 148.318,104.924 149.148,105.549 149.98,105.965 151.02,106.383 152.059,107.008 
		153.096,107.217 154.344,107.633 155.797,108.051 157.252,108.258 158.705,108.467 167.016,109.926 168.471,110.344 
		169.926,110.551 170.965,110.969 171.795,111.594 172.627,112.01 173.041,112.635 173.457,113.469 173.457,114.512 
		173.457,115.137 173.25,115.762 173.041,116.18 172.834,116.805 172.418,117.221 171.795,117.637 171.172,118.264 170.549,118.471 
		169.926,118.889 168.887,119.098 168.055,119.514 167.016,119.723 165.979,119.93 164.73,119.93 163.484,120.139 160.992,120.139 
		159.953,119.93 158.914,119.723 157.875,119.514 156.836,119.305 156.006,118.889 155.383,118.471 154.551,118.055 
		153.928,117.637 153.305,117.012 152.889,116.596 152.473,115.762 152.059,115.137 151.85,114.303 151.643,113.469 
		151.436,112.635 	"/>
	<path style="fill-rule:evenodd;clip-rule:evenodd;fill:#00442E;" d="M106.143,131.604l-1.453,0.207l-1.041,0.209l-1.037,0.416l-0.832,0.625
		l-0.623,0.834l-0.623,1.043l-0.207,1.041l-0.209,1.252l0.209,1.25l0.207,1.043l0.623,1.041l0.623,0.834l0.832,0.625l1.037,0.418
		l1.041,0.416h1.453h1.246l1.039-0.416l1.039-0.418l0.832-0.625l0.83-0.834l0.416-1.041l0.207-1.043l0.207-1.25l-0.207-1.252
		l-0.207-1.041l-0.416-1.043l-0.83-0.834l-0.832-0.625l-1.039-0.416l-1.039-0.209L106.143,131.604L106.143,131.604z
		 M106.143,141.398h-1.039l-0.83-0.209l-0.832-0.416l-0.623-0.418l-0.416-0.625l-0.414-0.625l-0.209-0.834v-1.041v-1.043
		l0.209-0.834l0.414-0.625l0.416-0.625l0.623-0.416l0.832-0.418l0.83-0.209h1.039h0.832l1.037,0.209l0.625,0.418l0.623,0.416
		l0.416,0.625l0.414,0.625l0.209,0.834v1.043v1.041l-0.209,0.834l-0.414,0.625l-0.416,0.625l-0.623,0.418l-0.625,0.416l-1.037,0.209
		H106.143L106.143,141.398z"/>
	<path style="fill-rule:evenodd;clip-rule:evenodd;fill:#00442E;" d="M54.618,93.251h0.208c2.351-0.454,4.29-0.75,6.276-0.724
		c4.523,0.06,8.482,0.886,8.475,5.517c-0.005,3.039-2.347,4.377-5.817,4.377c-2.647,0.531-5.437,0.582-8.141,0.902
		c-4.46,0.525-9.487,0.934-12.646,4.33c-1.849,1.984-2.481,4.219-2.481,6.857c0,3.707,1.075,5.682,3.466,7.82
		c2.914,2.604,7.107,3.146,10.942,3.217c5.375,0.094,11.715-2.418,14.886-6.66c1.064,3.738,2.298,5.627,6.44,5.627
		c1.76,0,3.462-0.209,5.194-0.209v-5.418c-1.291,0.24-2.183,0.312-2.912,0.018c-2.1-0.848-2.282-3.602-2.282-5.229v-14.59
		c0-2.846-0.338-5.386-2.078-7.712c-2.531-3.173-6.478-3.976-10.388-4.377c-2.835-0.29-5.678-0.375-8.519,0
		C55.241,89.085,55.568,91.345,54.618,93.251L54.618,93.251z M60.643,108.051c1.899,0,7.585-0.939,8.934-2.293v5.627
		c0,3.486-2.959,5.652-5.817,7.086c-2.535,1.018-5.379,1.459-8.103,1.459c-4.226-0.471-8.103-0.793-8.103-5.627
		c0-2.965,1.931-4.516,5.402-5.211C55.291,108.777,58.342,108.512,60.643,108.051L60.643,108.051z"/>
	<path style="fill-rule:evenodd;clip-rule:evenodd;fill:#00442E;" d="M12.443,73.242v52.732h7.895v-23.76h12.542
		c10.094,0,19.246-2.561,19.246-14.382c0-12.006-8.997-14.59-19.324-14.59H12.443L12.443,73.242z M30.373,96.378H20.338V79.287
		h12.071c6.44,0,12.652,1.163,12.652,8.754C45.061,96.579,36.893,96.378,30.373,96.378L30.373,96.378z"/>
	<path style="fill-rule:evenodd;clip-rule:evenodd;fill:#00442E;" d="M115.285,131.811v10.838h1.453v-4.584h4.779h0.414l0.209,0.207l0.416,0.209
		l0.207,0.209v0.416l0.207,0.209v0.625l0.209,1.668v0.207v0.418v0.209l0.207,0.207h1.662l-0.207-0.416v-0.209v-0.416l-0.209-0.418
		v-1.666l-0.207-0.418v-0.416l-0.209-0.418v-0.207l-0.207-0.209l-0.416-0.209l-0.207-0.209h-0.416l0.416-0.207l0.416-0.209
		l0.207-0.209l0.207-0.416l0.209-0.209l0.207-0.416l0.209-0.418v-0.625l-0.209-0.625l-0.207-0.625l-0.209-0.418l-0.414-0.416
		l-0.623-0.416l-0.623-0.209l-0.625-0.209h-1.037H115.285L115.285,131.811z M116.738,133.061h4.156l0.623,0.209h0.623l0.416,0.209
		l0.414,0.209l0.209,0.416v0.209v0.625v0.416v0.418l-0.209,0.416h-0.414l-0.416,0.209l-0.416,0.209h-0.623h-4.363V133.061
		L116.738,133.061z"/>
	<path style="fill-rule:evenodd;clip-rule:evenodd;fill:#00442E;" d="M137.93,131.811l-4.986,10.838h1.455l1.453-3.125h5.611l1.246,3.125h1.662
		l-4.779-10.838H137.93L137.93,131.811z M140.838,138.064h-4.361l2.285-4.586L140.838,138.064L140.838,138.064z"/>
</g>
</svg>
