<?xml version="1.0" encoding="UTF-8" standalone="no"?>
<!DOCTYPE svg PUBLIC "-//W3C//DTD SVG 20010904//EN"
              "http://www.w3.org/TR/2001/REC-SVG-20010904/DTD/svg10.dtd">

<svg xmlns="http://www.w3.org/2000/svg"
     width="3.05556in" height="2.125in"
     viewBox="0 0 220 153">
  <path id="Viclogo"
        fill="none" stroke="black" stroke-width="1"
        d="M 115.00,17.00
           C 115.00,17.00 99.00,54.00 99.00,54.00
             99.00,54.00 116.00,54.00 116.00,54.00
             116.00,54.00 116.00,61.00 116.00,61.00
             116.00,61.00 109.00,61.00 109.00,61.00
             109.00,61.00 109.00,81.00 109.00,81.00
             109.00,81.00 101.00,81.00 101.00,81.00
             101.00,81.00 101.00,61.00 101.00,61.00
             93.15,61.65 92.61,67.47 90.00,74.00
             82.13,72.57 79.64,76.37 75.43,72.99
             71.90,70.16 72.18,62.60 78.02,61.33
             81.37,60.61 83.45,62.20 86.00,64.00
             86.00,64.00 90.00,61.00 90.00,61.00
             88.32,58.91 87.47,57.73 84.98,56.45
             71.83,49.68 58.45,68.51 72.09,78.03
             73.66,79.13 76.10,80.26 78.00,80.57
             81.04,81.06 84.08,79.76 87.00,79.00
             87.00,79.00 69.26,118.00 69.26,118.00
             66.46,123.79 64.62,130.38 60.00,135.00
             60.00,135.00 48.74,111.00 48.74,111.00
             48.74,111.00 35.00,80.00 35.00,80.00
             35.00,80.00 40.30,78.40 40.30,78.40
             40.30,78.40 52.00,55.00 52.00,55.00
             42.55,55.33 42.12,61.20 39.00,69.00
             39.00,69.00 37.00,69.00 37.00,69.00
             37.00,69.00 30.61,56.60 30.61,56.60
             30.61,56.60 21.97,52.69 21.97,52.69
             21.97,52.69 16.74,42.00 16.74,42.00
             16.74,42.00 6.00,17.00 6.00,17.00
             6.00,17.00 115.00,17.00 115.00,17.00 Z
           M 140.90,56.65
           C 150.50,64.02 146.75,83.33 130.00,81.89
             119.56,81.00 113.35,68.99 119.01,60.04
             121.68,55.81 125.36,54.50 130.00,53.56
             133.98,53.44 137.64,54.15 140.90,56.65 Z
           M 55.00,55.00
           C 55.00,55.00 55.00,80.00 55.00,80.00
             55.00,80.00 62.00,80.00 62.00,80.00
             62.00,80.00 62.00,55.00 62.00,55.00
             62.00,55.00 55.00,55.00 55.00,55.00 Z
           M 171.26,60.04
           C 173.54,65.70 169.78,70.34 169.52,72.43
             169.30,74.23 171.37,78.80 172.00,81.00
             172.00,81.00 163.49,79.98 163.49,79.98
             163.49,79.98 157.00,74.00 157.00,74.00
             157.00,74.00 157.00,81.00 157.00,81.00
             157.00,81.00 149.00,81.00 149.00,81.00
             149.00,81.00 149.00,54.00 149.00,54.00
             155.89,54.00 168.09,52.18 171.26,60.04 Z
           M 184.00,54.00
           C 184.00,54.00 184.00,81.00 184.00,81.00
             184.00,81.00 176.00,81.00 176.00,81.00
             176.00,81.00 176.00,54.00 176.00,54.00
             176.00,54.00 184.00,54.00 184.00,54.00 Z
           M 194.58,62.00
           C 195.47,59.95 197.00,55.41 199.33,54.72
             202.22,53.86 203.81,58.06 204.78,60.00
             207.15,64.80 212.66,76.31 214.00,81.00
             214.00,81.00 206.28,80.50 206.28,80.50
             206.28,80.50 200.00,78.28 200.00,78.28
             200.00,78.28 193.72,80.50 193.72,80.50
             193.72,80.50 186.00,81.00 186.00,81.00
             186.00,81.00 194.58,62.00 194.58,62.00 Z
           M 157.00,61.00
           C 157.00,61.00 157.00,67.00 157.00,67.00
             166.06,66.68 164.77,61.64 157.00,61.00 Z
           M 132.98,73.34
           C 139.46,71.42 139.46,60.67 129.11,62.60
             121.43,67.49 128.13,74.78 132.98,73.34 Z" />
</svg>
